<svg height="64" width="64" xmlns="http://www.w3.org/2000/svg" viewBox="0 0 64 64"><path fill="#c2cddc" fill-rule="evenodd" d="M57 15h4v6h-4v-6z"/><path fill="#8592a5" fill-rule="evenodd" d="M60.17 20H60v-4H14h2c-.14 0-2.73 0 0 0h-4c0-1.11.89-2 2-2h46c1.11 0 2 .89 2 2v4h-1.83z"/><path fill="#fff" fill-rule="evenodd" d="M7 0h50v20H7V0z"/><path fill="#edf2f8" fill-rule="evenodd" d="M63 63H33 16 1V15h15l2.13 6H63v42z"/><path fill="#fff" fill-rule="evenodd" d="M15 28h34v24H15V28z"/><path fill="#c2cddc" fill-rule="evenodd" d="M1 59h62v4H1v-4z"/><path fill="#8592a5" fill-rule="evenodd" d="M62 64H2a2 2 0 0 1-2-2V35v-1-7.08-.08V24v-8c0-1.11.89-2 2-2h4V2c0-1.11.89-2 2-2h48a2 2 0 0 1 2 2v18h4c1.11 0 2 .89 2 2v40a2 2 0 0 1-2 2zM56 2H8v12h5V7c0-.55.45-1 1-1s1 .45 1 1v7h1c1.1 0 1.75.83 2 2l1 4V7c0-.55.45-1 1-1s1 .45 1 1v13h4V7c0-.55.45-1 1-1s1 .45 1 1v13h17V7c0-.55.45-1 1-1s1 .45 1 1v13h10V2zm6 24v-2-2H17.56l-1.75-6H2v42h60V26zm0 34H2v2h60v-2zM16 27h32c1.11 0 2 .89 2 2v22a2 2 0 0 1-2 2H16a2 2 0 0 1-2-2V29c0-1.11.89-2 2-2zm0 24h32V29H16v22zm27-10H21c-.55 0-1-.45-1-1s.45-1 1-1h22c.55 0 1 .45 1 1s-.45 1-1 1zm0-6H21c-.55 0-1-.45-1-1s.45-1 1-1h22c.55 0 1 .45 1 1s-.45 1-1 1zM21 45h12c.55 0 1 .45 1 1s-.45 1-1 1H21c-.55 0-1-.45-1-1s.45-1 1-1zM51 6c.55 0 1 .45 1 1v7c0 .55-.45 1-1 1s-1-.45-1-1V7c0-.55.45-1 1-1z"/></svg>